<svg width="169" height="36" viewBox="0 0 169 36" fill="none" xmlns="http://www.w3.org/2000/svg">
<path d="M40.3248 20.2222L42.266 20.0524C42.3568 20.8304 42.572 21.4683 42.9077 21.9659C43.2434 22.4655 43.7648 22.8683 44.4717 23.1744C45.1787 23.4825 45.9745 23.6365 46.8572 23.6365C47.6411 23.6365 48.3343 23.52 48.9366 23.287C49.5369 23.054 49.9851 22.7341 50.2774 22.3273C50.5716 21.9205 50.7178 21.4781 50.7178 20.9963C50.7178 20.5145 50.5756 20.082 50.2932 19.7187C50.0108 19.3553 49.5428 19.0492 48.8931 18.8004C48.4765 18.6385 47.5523 18.3857 46.1246 18.0421C44.6968 17.6985 43.6957 17.3766 43.123 17.0725C42.3805 16.6835 41.8276 16.2017 41.4622 15.6251C41.0989 15.0484 40.9152 14.4047 40.9152 13.6898C40.9152 12.9059 41.1384 12.1713 41.5827 11.488C42.029 10.8048 42.6787 10.2874 43.5337 9.93391C44.3888 9.58043 45.3406 9.40271 46.3872 9.40271C47.5404 9.40271 48.5554 9.58833 49.4362 9.95958C50.3169 10.3308 50.9942 10.8778 51.4682 11.5986C51.9421 12.3194 52.1968 13.1369 52.2324 14.0492L50.2596 14.1973C50.153 13.2139 49.7936 12.4714 49.1834 11.9699C48.5712 11.4683 47.6688 11.2175 46.4741 11.2175C45.2794 11.2175 44.3216 11.4446 43.7529 11.9007C43.1842 12.3569 42.8998 12.9059 42.8998 13.5496C42.8998 14.1085 43.1013 14.5686 43.5041 14.928C43.899 15.2894 44.9338 15.6586 46.6064 16.0358C48.279 16.415 49.4263 16.7447 50.0483 17.0271C50.9528 17.4438 51.6222 17.973 52.0527 18.6128C52.4832 19.2526 52.7004 19.9892 52.7004 20.8245C52.7004 21.6598 52.4634 22.4319 51.9895 23.1626C51.5156 23.8952 50.8343 24.4639 49.9476 24.8707C49.061 25.2775 48.0618 25.4809 46.952 25.4809C45.544 25.4809 44.3651 25.2755 43.4152 24.8648C42.4634 24.4541 41.719 23.8379 41.1779 23.0145C40.6368 22.191 40.3524 21.2589 40.3248 20.2202V20.2222Z" fill="#F8FFE9"/>
<path d="M54.4009 25.2183V9.6693H56.3104V15.2479C57.201 14.2151 58.3266 13.6997 59.6833 13.6997C60.5166 13.6997 61.2433 13.8636 61.8574 14.1934C62.4735 14.5212 62.9119 14.9774 63.1785 15.5559C63.4431 16.1365 63.5754 16.9777 63.5754 18.0796V25.2183H61.6659V18.0796C61.6659 17.1259 61.4585 16.4307 61.0458 15.9963C60.6331 15.5619 60.0466 15.3447 59.2903 15.3447C58.7235 15.3447 58.1923 15.4908 57.6947 15.785C57.1971 16.0792 56.8416 16.4762 56.6284 16.9777C56.4171 17.4793 56.3104 18.1725 56.3104 19.0571V25.2202H54.4009V25.2183Z" fill="#F8FFE9"/>
<path d="M65.6231 11.8652V9.6693H67.5327V11.8652H65.6231ZM65.6231 25.2183V13.9544H67.5327V25.2183H65.6231Z" fill="#F8FFE9"/>
<path d="M77.2799 21.5907L79.2526 21.8356C78.9406 22.9888 78.366 23.8833 77.5247 24.5192C76.6835 25.1551 75.6092 25.473 74.3 25.473C72.6531 25.473 71.3458 24.9655 70.3802 23.9505C69.4145 22.9355 68.9327 21.5137 68.9327 19.6811C68.9327 17.8486 69.4205 16.3162 70.396 15.2696C71.3715 14.223 72.6373 13.6997 74.1934 13.6997C75.7495 13.6997 76.9303 14.2131 77.8841 15.238C78.8379 16.2629 79.3158 17.7064 79.3158 19.5646C79.3158 19.6772 79.3119 19.847 79.3059 20.0741H70.9055C70.9765 21.3122 71.3261 22.2581 71.956 22.9157C72.5859 23.5733 73.3699 23.9031 74.3099 23.9031C75.0089 23.9031 75.6073 23.7194 76.1029 23.3521C76.5986 22.9848 76.9896 22.3983 77.2799 21.5907ZM71.0121 18.5042H77.3016C77.2167 17.5563 76.9758 16.8454 76.5808 16.3715C75.9726 15.6369 75.1847 15.2676 74.2151 15.2676C73.3383 15.2676 72.6017 15.5619 72.0034 16.1483C71.4051 16.7348 71.0753 17.5208 71.0121 18.5022V18.5042Z" fill="#F8FFE9"/>
<path d="M80.7393 25.2183V9.6693H82.6489V25.2183H80.7393Z" fill="#F8FFE9"/>
<path d="M92.0469 25.2183V23.7965C91.332 24.9142 90.2835 25.473 88.8972 25.473C87.9987 25.473 87.1733 25.2262 86.4209 24.7305C85.6685 24.2349 85.084 23.5437 84.6713 22.6571C84.2586 21.7704 84.0512 20.7495 84.0512 19.5962C84.0512 18.443 84.2388 17.4517 84.614 16.5354C84.9892 15.6191 85.5501 14.9181 86.3004 14.4304C87.0489 13.9426 87.8881 13.6977 88.8143 13.6977C89.4936 13.6977 90.0978 13.8399 90.6271 14.1282C91.1583 14.4146 91.5888 14.7878 91.9205 15.2479V9.6693H93.8182V25.2183H92.0469ZM86.0121 19.5962C86.0121 21.0378 86.3162 22.118 86.9245 22.8308C87.5327 23.5457 88.2495 23.9011 89.0769 23.9011C89.9043 23.9011 90.6192 23.5595 91.2037 22.8782C91.7862 22.195 92.0785 21.1543 92.0785 19.7542C92.0785 18.2119 91.7823 17.0804 91.1879 16.3597C90.5935 15.6389 89.8628 15.2775 88.992 15.2775C88.1211 15.2775 87.4339 15.6231 86.8652 16.3162C86.2965 17.0093 86.0121 18.1014 86.0121 19.5943V19.5962Z" fill="#F8FFE9"/>
<path d="M103.662 21.5907L105.635 21.8356C105.323 22.9888 104.748 23.8833 103.907 24.5192C103.066 25.1551 101.992 25.473 100.682 25.473C99.0354 25.473 97.7281 24.9655 96.7625 23.9505C95.7968 22.9355 95.315 21.5137 95.315 19.6811C95.315 17.8486 95.8028 16.3162 96.7783 15.2696C97.7538 14.223 99.0196 13.6997 100.576 13.6997C102.132 13.6997 103.313 14.2131 104.266 15.238C105.22 16.2629 105.698 17.7064 105.698 19.5646C105.698 19.6772 105.694 19.847 105.688 20.0741H97.2877C97.3588 21.3122 97.7084 22.2581 98.3383 22.9157C98.9682 23.5733 99.7522 23.9031 100.692 23.9031C101.391 23.9031 101.99 23.7194 102.485 23.3521C102.981 22.9848 103.372 22.3983 103.662 21.5907ZM97.3944 18.5042H103.684C103.599 17.5563 103.358 16.8454 102.963 16.3715C102.355 15.6369 101.567 15.2676 100.597 15.2676C99.7206 15.2676 98.984 15.5619 98.3857 16.1483C97.7873 16.7348 97.4576 17.5208 97.3944 18.5022V18.5042Z" fill="#F8FFE9"/>
<path d="M114.545 25.2183V23.5634C113.668 24.8371 112.477 25.473 110.971 25.473C110.305 25.473 109.685 25.3466 109.108 25.0919C108.532 24.8371 108.105 24.5172 107.825 24.1322C107.544 23.7471 107.349 23.2751 107.236 22.7163C107.159 22.3411 107.12 21.7467 107.12 20.9351V13.9564H109.029V20.2044C109.029 21.2017 109.069 21.8731 109.146 22.2206C109.266 22.7222 109.521 23.1171 109.91 23.4035C110.299 23.6898 110.779 23.832 111.352 23.832C111.924 23.832 112.461 23.6859 112.963 23.3916C113.465 23.0974 113.82 22.6985 114.029 22.193C114.239 21.6874 114.341 20.9529 114.341 19.9912V13.9564H116.251V25.2202H114.543L114.545 25.2183Z" fill="#F8FFE9"/>
<path d="M118.374 25.2183V13.9544H120.082V15.5342C120.435 14.9833 120.905 14.5389 121.492 14.2032C122.078 13.8675 122.748 13.6997 123.496 13.6997C124.33 13.6997 125.015 13.8735 125.548 14.219C126.081 14.5646 126.458 15.0504 126.678 15.6724C127.568 14.3573 128.727 13.6997 130.157 13.6997C131.275 13.6997 132.134 14.0097 132.734 14.6278C133.334 15.2459 133.636 16.1997 133.636 17.4872V25.2202H131.739V18.125C131.739 17.3608 131.678 16.8119 131.553 16.4762C131.429 16.1404 131.206 15.8699 130.88 15.6645C130.554 15.4592 130.173 15.3565 129.734 15.3565C128.943 15.3565 128.285 15.6191 127.762 16.1464C127.238 16.6736 126.978 17.5168 126.978 18.676V25.2202H125.068V17.9019C125.068 17.0528 124.912 16.4169 124.602 15.9923C124.29 15.5678 123.783 15.3565 123.076 15.3565C122.539 15.3565 122.041 15.4987 121.585 15.7811C121.129 16.0634 120.799 16.4781 120.593 17.0212C120.388 17.5662 120.285 18.3502 120.285 19.375V25.2183H118.376H118.374Z" fill="#F8FFE9"/>
<circle cx="138.5" cy="24" r="1.5" fill="#F8FFE9"/>
<path d="M161.38 18.4006V25.5H159.566V13.6983H161.318V15.5424H161.472C161.748 14.9431 162.168 14.4616 162.732 14.0979C163.295 13.7291 164.023 13.5447 164.914 13.5447C165.713 13.5447 166.412 13.7086 167.012 14.0364C167.611 14.3591 168.077 14.8509 168.41 15.5116C168.743 16.1673 168.909 16.9971 168.909 18.001V25.5H167.096V18.124C167.096 17.1968 166.855 16.4746 166.374 15.9573C165.892 15.4348 165.232 15.1736 164.392 15.1736C163.813 15.1736 163.295 15.299 162.84 15.55C162.389 15.801 162.033 16.1673 161.772 16.6488C161.51 17.1302 161.38 17.7142 161.38 18.4006Z" fill="#F8FFE9"/>
<path d="M156.163 20.6748V13.6983H157.976V25.5H156.163V23.5023H156.04C155.763 24.1016 155.333 24.6113 154.749 25.0313C154.165 25.4462 153.428 25.6537 152.536 25.6537C151.799 25.6537 151.143 25.4923 150.569 25.1696C149.996 24.8418 149.545 24.35 149.217 23.6944C148.889 23.0336 148.725 22.2013 148.725 21.1973V13.6983H150.539V21.0744C150.539 21.9349 150.779 22.6213 151.261 23.1335C151.748 23.6457 152.367 23.9018 153.12 23.9018C153.571 23.9018 154.029 23.7866 154.496 23.5561C154.967 23.3256 155.361 22.9722 155.679 22.4958C156.002 22.0194 156.163 21.4124 156.163 20.6748Z" fill="#F8FFE9"/>
<path d="M147.915 13.6983V15.235H141.553V13.6983H147.915ZM143.459 25.5V12.0695C143.459 11.3933 143.617 10.8299 143.935 10.3791C144.253 9.92837 144.665 9.5903 145.172 9.36492C145.679 9.13954 146.214 9.02686 146.778 9.02686C147.224 9.02686 147.587 9.06271 147.869 9.13442C148.151 9.20613 148.361 9.27272 148.499 9.33419L147.977 10.9016C147.884 10.8709 147.756 10.8324 147.592 10.7863C147.434 10.7402 147.224 10.7172 146.962 10.7172C146.363 10.7172 145.93 10.8683 145.664 11.1705C145.403 11.4727 145.272 11.9158 145.272 12.4997V25.5H143.459Z" fill="#F8FFE9"/>
<path d="M24.9403 6.16913L12.471 13.5383V0.5L24.9403 6.16913Z" fill="#009B95"/>
<path d="M12.471 0.5V13.5383L0 6.16913L12.471 0.5Z" fill="#00FF97"/>
<path d="M24.9474 8.53217L12.4693 15.8996L12.3168 16.0875V22.0101L12.4693 22.4586H12.471V26.8549V35.4189L24.9367 24.0381L24.9474 24.0363V8.53217Z" fill="#006C68"/>
<path d="M12.471 22.3788H12.4693V15.8996L0 8.53217V8.53394V8.53217V24.0363L4.8271 28.4415L12.4693 35.4189H12.471V22.3788Z" fill="#00D67F"/>
<path d="M12.4693 22.4586V15.8996L0 8.53217L12.4693 22.4586Z" fill="#38FFAE"/>
<path d="M12.4693 15.8996V22.4586L24.9474 8.53217L12.4693 15.8996Z" fill="#00A59F"/>
</svg>
