<svg width="21" height="29" viewBox="0 0 21 29" fill="none" xmlns="http://www.w3.org/2000/svg">
<path d="M20.0517 4.55791L10.0266 10.4826V0L20.0517 4.55791Z" fill="#009B95"/>
<path d="M10.0265 0V10.4826L0 4.55791L10.0265 0Z" fill="#00FF97"/>
<path d="M20.0573 6.45776L10.0251 12.381L9.90253 12.5321V17.2938L10.0251 17.6544H10.0265V21.189V28.0743L20.0488 18.9243L20.0573 18.9229V6.45776Z" fill="#006C68"/>
<path d="M10.0265 17.5903H10.0251V12.381L0 6.45776V6.45919V6.45776V18.9229L3.88092 22.4646L10.0251 28.0743H10.0265V17.5903Z" fill="#00D67F"/>
<path d="M10.0251 17.6544V12.381L0 6.45776L10.0251 17.6544Z" fill="#38FFAE"/>
<path d="M10.0251 12.381V17.6544L20.0574 6.45776L10.0251 12.381Z" fill="#00A59F"/>
</svg>
